<svg width="14" height="15" viewBox="0 0 14 15" fill="none" xmlns="http://www.w3.org/2000/svg">
<path d="M10.3125 4.5625V3.625C10.3125 1.57422 8.61328 -0.125 6.5625 -0.125C4.48242 -0.125 2.8125 1.57422 2.8125 3.625V4.5625H0V12.5312C0 13.8496 1.02539 14.875 2.34375 14.875H10.7812C12.0703 14.875 13.125 13.8496 13.125 12.5312V4.5625H10.3125ZM4.6875 3.625C4.6875 2.59961 5.50781 1.75 6.5625 1.75C7.58789 1.75 8.4375 2.59961 8.4375 3.625V4.5625H4.6875V3.625ZM9.375 7.14062C8.96484 7.14062 8.67188 6.84766 8.67188 6.4375C8.67188 6.05664 8.96484 5.73438 9.375 5.73438C9.75586 5.73438 10.0781 6.05664 10.0781 6.4375C10.0781 6.84766 9.75586 7.14062 9.375 7.14062ZM3.75 7.14062C3.33984 7.14062 3.04688 6.84766 3.04688 6.4375C3.04688 6.05664 3.33984 5.73438 3.75 5.73438C4.13086 5.73438 4.45312 6.05664 4.45312 6.4375C4.45312 6.84766 4.13086 7.14062 3.75 7.14062Z" fill="white"/>
</svg>