<svg width="13" height="13" viewBox="0 0 13 13" fill="none" xmlns="http://www.w3.org/2000/svg">
<path d="M6.875 3.60547C5.125 3.60547 3.73047 5.02734 3.73047 6.75C3.73047 8.5 5.125 9.89453 6.875 9.89453C8.59766 9.89453 10.0195 8.5 10.0195 6.75C10.0195 5.02734 8.59766 3.60547 6.875 3.60547ZM6.875 8.80078C5.75391 8.80078 4.82422 7.89844 4.82422 6.75C4.82422 5.62891 5.72656 4.72656 6.875 4.72656C7.99609 4.72656 8.89844 5.62891 8.89844 6.75C8.89844 7.89844 7.99609 8.80078 6.875 8.80078ZM10.8672 3.49609C10.8672 3.08594 10.5391 2.75781 10.1289 2.75781C9.71875 2.75781 9.39062 3.08594 9.39062 3.49609C9.39062 3.90625 9.71875 4.23438 10.1289 4.23438C10.5391 4.23438 10.8672 3.90625 10.8672 3.49609ZM12.9453 4.23438C12.8906 3.25 12.6719 2.375 11.9609 1.66406C11.25 0.953125 10.375 0.734375 9.39062 0.679688C8.37891 0.625 5.34375 0.625 4.33203 0.679688C3.34766 0.734375 2.5 0.953125 1.76172 1.66406C1.05078 2.375 0.832031 3.25 0.777344 4.23438C0.722656 5.24609 0.722656 8.28125 0.777344 9.29297C0.832031 10.2773 1.05078 11.125 1.76172 11.8633C2.5 12.5742 3.34766 12.793 4.33203 12.8477C5.34375 12.9023 8.37891 12.9023 9.39062 12.8477C10.375 12.793 11.25 12.5742 11.9609 11.8633C12.6719 11.125 12.8906 10.2773 12.9453 9.29297C13 8.28125 13 5.24609 12.9453 4.23438ZM11.6328 10.3594C11.4414 10.9062 11.0039 11.3164 10.4844 11.5352C9.66406 11.8633 7.75 11.7812 6.875 11.7812C5.97266 11.7812 4.05859 11.8633 3.26562 11.5352C2.71875 11.3164 2.30859 10.9062 2.08984 10.3594C1.76172 9.56641 1.84375 7.65234 1.84375 6.75C1.84375 5.875 1.76172 3.96094 2.08984 3.14062C2.30859 2.62109 2.71875 2.21094 3.26562 1.99219C4.05859 1.66406 5.97266 1.74609 6.875 1.74609C7.75 1.74609 9.66406 1.66406 10.4844 1.99219C11.0039 2.18359 11.4141 2.62109 11.6328 3.14062C11.9609 3.96094 11.8789 5.875 11.8789 6.75C11.8789 7.65234 11.9609 9.56641 11.6328 10.3594Z" fill="#B0976D"/>
</svg>
